G75*
%MOIN*%
%OFA0B0*%
%FSLAX24Y24*%
%IPPOS*%
%LPD*%
%AMOC8*
5,1,8,0,0,1.08239X$1,22.5*
%
%ADD10R,0.0500X0.0500*%
%ADD11R,0.0354X0.0472*%
%ADD12C,0.0050*%
%ADD13R,0.0217X0.0472*%
%ADD14R,0.0315X0.0138*%
%ADD15R,0.0512X0.0591*%
%ADD16R,0.0787X0.0630*%
D10*
X002018Y004961D03*
X002018Y005961D03*
X002018Y006961D03*
X002018Y007961D03*
X006518Y007961D03*
X006518Y006961D03*
X006518Y005961D03*
X006518Y004961D03*
D11*
X001268Y003211D03*
X001768Y003211D03*
X002268Y003211D03*
X002768Y003211D03*
X003268Y003211D03*
X003768Y003211D03*
X006268Y003211D03*
X006768Y003211D03*
X007268Y003211D03*
X007268Y009711D03*
X006768Y009711D03*
X006268Y009711D03*
X005768Y009711D03*
X005268Y009711D03*
X004768Y009711D03*
X004268Y009711D03*
X003768Y009711D03*
X003268Y009711D03*
X002768Y009711D03*
X002268Y009711D03*
X001768Y009711D03*
X001268Y009711D03*
D12*
X003800Y007047D02*
X003905Y007117D01*
X004020Y007169D01*
X004142Y007200D01*
X004268Y007211D01*
X004385Y007201D01*
X004499Y007174D01*
X004608Y007129D01*
X004709Y007067D01*
X004798Y006991D01*
X004874Y006901D01*
X004936Y006801D01*
X004981Y006692D01*
X005008Y006578D01*
X005018Y006461D01*
X005007Y006335D01*
X004976Y006213D01*
X004924Y006098D01*
X004854Y005993D01*
X004767Y005901D01*
X004667Y005826D01*
X004555Y005768D01*
X004435Y005729D01*
X004310Y005712D01*
X004184Y005715D01*
X004060Y005740D01*
X003942Y005785D01*
X003834Y005849D01*
X003737Y005930D01*
X003656Y006027D01*
X003592Y006135D01*
X003547Y006253D01*
X003522Y006377D01*
X003519Y006503D01*
X003537Y006628D01*
X003575Y006748D01*
X003633Y006860D01*
X003708Y006960D01*
X003800Y007047D01*
X003785Y007033D02*
X004749Y007033D01*
X004804Y006984D02*
X003733Y006984D01*
X003690Y006936D02*
X004845Y006936D01*
X004883Y006887D02*
X003653Y006887D01*
X003622Y006839D02*
X004913Y006839D01*
X004941Y006790D02*
X003597Y006790D01*
X003573Y006742D02*
X004961Y006742D01*
X004981Y006693D02*
X003557Y006693D01*
X003542Y006645D02*
X004992Y006645D01*
X005004Y006596D02*
X003532Y006596D01*
X003525Y006548D02*
X005011Y006548D01*
X005015Y006499D02*
X003519Y006499D01*
X003520Y006451D02*
X005017Y006451D01*
X005013Y006402D02*
X003522Y006402D01*
X003527Y006354D02*
X005009Y006354D01*
X004999Y006305D02*
X003537Y006305D01*
X003546Y006257D02*
X004987Y006257D01*
X004973Y006208D02*
X003564Y006208D01*
X003583Y006160D02*
X004952Y006160D01*
X004930Y006111D02*
X003606Y006111D01*
X003635Y006063D02*
X004901Y006063D01*
X004868Y006014D02*
X003667Y006014D01*
X003708Y005966D02*
X004828Y005966D01*
X004782Y005917D02*
X003753Y005917D01*
X003811Y005869D02*
X004724Y005869D01*
X004656Y005820D02*
X003883Y005820D01*
X003977Y005772D02*
X004562Y005772D01*
X004389Y005723D02*
X004145Y005723D01*
X003851Y007081D02*
X004686Y007081D01*
X004607Y007130D02*
X003933Y007130D01*
X004057Y007178D02*
X004482Y007178D01*
D13*
X009001Y005637D03*
X009749Y005637D03*
X009749Y004613D03*
X009375Y004613D03*
X009001Y004613D03*
D14*
X003335Y010369D03*
X003335Y010881D03*
X002665Y010881D03*
X002665Y010625D03*
X002665Y010369D03*
D15*
X009751Y008500D03*
X010499Y008500D03*
X010499Y007625D03*
X009751Y007625D03*
X009751Y006750D03*
X010499Y006750D03*
D16*
X006875Y002051D03*
X006875Y000949D03*
X005625Y000949D03*
X005625Y002051D03*
X004375Y002051D03*
X004375Y000949D03*
M02*
