G75*
%MOIN*%
%OFA0B0*%
%FSLAX24Y24*%
%IPPOS*%
%LPD*%
%AMOC8*
5,1,8,0,0,1.08239X$1,22.5*
%
%ADD10C,0.0070*%
%ADD11R,0.0500X0.0500*%
%ADD12R,0.0354X0.0472*%
%ADD13R,0.0217X0.0472*%
%ADD14R,0.0315X0.0138*%
%ADD15R,0.0512X0.0591*%
%ADD16R,0.0787X0.0630*%
%ADD17R,0.0472X0.0472*%
%ADD18C,0.0160*%
%ADD19C,0.0120*%
D10*
X009509Y000923D02*
X009720Y001133D01*
X009509Y001343D01*
X010140Y001343D01*
X010257Y001433D02*
X010047Y001223D01*
X010678Y001223D01*
X010678Y001643D02*
X010047Y001643D01*
X010257Y001433D01*
X010140Y000923D02*
X009509Y000923D01*
D11*
X006518Y004961D03*
X006518Y005961D03*
X006518Y006961D03*
X006518Y007961D03*
X002018Y007961D03*
X002018Y006961D03*
X002018Y005961D03*
X002018Y004961D03*
D12*
X002268Y003211D03*
X002768Y003211D03*
X003268Y003211D03*
X003768Y003211D03*
X001768Y003211D03*
X001268Y003211D03*
X006268Y003211D03*
X006768Y003211D03*
X007268Y003211D03*
X007268Y009711D03*
X006768Y009711D03*
X006268Y009711D03*
X005768Y009711D03*
X005268Y009711D03*
X004768Y009711D03*
X004268Y009711D03*
X003768Y009711D03*
X003268Y009711D03*
X002768Y009711D03*
X002268Y009711D03*
X001768Y009711D03*
X001268Y009711D03*
D13*
X009001Y005637D03*
X009749Y005637D03*
X009749Y004613D03*
X009375Y004613D03*
X009001Y004613D03*
D14*
X003335Y010369D03*
X003335Y010881D03*
X002665Y010881D03*
X002665Y010625D03*
X002665Y010369D03*
D15*
X009751Y008500D03*
X010499Y008500D03*
X010499Y007625D03*
X009751Y007625D03*
X009751Y006750D03*
X010499Y006750D03*
D16*
X006875Y002051D03*
X006875Y000949D03*
X005625Y000949D03*
X005625Y002051D03*
X004375Y002051D03*
X004375Y000949D03*
D17*
X008500Y003000D03*
X009500Y003000D03*
X010500Y003000D03*
D18*
X003268Y003211D02*
X003268Y001357D01*
X003676Y000949D01*
X004375Y000949D01*
X005625Y000949D01*
X006875Y000949D01*
X007625Y001500D02*
X007750Y001625D01*
X007750Y002375D01*
X007750Y003125D01*
X007664Y003211D01*
X007268Y003211D01*
X007268Y003982D01*
X006518Y004732D01*
X006518Y004750D01*
X006518Y004961D01*
X006518Y005961D01*
X006518Y006961D01*
X006518Y007961D01*
X009375Y004613D02*
X009375Y004125D01*
X010000Y003500D01*
X010500Y003500D01*
X007625Y001500D02*
X004000Y001500D01*
X003768Y001732D01*
X003768Y003211D01*
X006268Y003211D02*
X006268Y002857D01*
X006875Y002250D01*
X006875Y002051D01*
D19*
X007489Y002015D02*
X011157Y002015D01*
X011157Y002133D02*
X007489Y002133D01*
X007489Y002252D02*
X011157Y002252D01*
X011157Y002370D02*
X007489Y002370D01*
X007489Y002457D02*
X007360Y002586D01*
X006963Y002586D01*
X006795Y002754D01*
X007036Y002754D01*
X007116Y002834D01*
X007239Y002834D01*
X007239Y003182D01*
X007165Y003182D01*
X007165Y003239D01*
X007239Y003239D01*
X007239Y003182D01*
X007296Y003182D01*
X007296Y002834D01*
X007463Y002834D01*
X007499Y002844D01*
X008044Y002844D01*
X008044Y002726D02*
X006824Y002726D01*
X006942Y002607D02*
X008110Y002607D01*
X008173Y002544D02*
X008044Y002673D01*
X008044Y003327D01*
X008173Y003456D01*
X008220Y003456D01*
X008220Y003634D01*
X007763Y004091D01*
X007720Y004194D01*
X007720Y010009D01*
X007640Y010089D01*
X007614Y010089D01*
X007665Y010038D01*
X007665Y009383D01*
X007536Y009254D01*
X004013Y009254D01*
X004005Y009234D01*
X003237Y008466D01*
X003159Y008388D01*
X003056Y008345D01*
X002307Y008345D01*
X002322Y008341D01*
X002354Y008323D01*
X002380Y008297D01*
X002398Y008265D01*
X002408Y008229D01*
X002408Y008021D01*
X002078Y008021D01*
X002078Y008345D01*
X001958Y008345D01*
X001958Y008021D01*
X002078Y008021D01*
X002078Y007901D01*
X002408Y007901D01*
X002408Y007692D01*
X002398Y007657D01*
X002380Y007625D01*
X002354Y007599D01*
X002322Y007580D01*
X002286Y007571D01*
X002078Y007571D01*
X002078Y007901D01*
X001958Y007901D01*
X001780Y007901D01*
X001780Y008021D01*
X001958Y008021D01*
X001958Y007901D01*
X001958Y007571D01*
X001780Y007571D01*
X001780Y007351D01*
X001958Y007351D01*
X001958Y007021D01*
X002078Y007021D01*
X002078Y007351D01*
X002286Y007351D01*
X002322Y007341D01*
X002354Y007323D01*
X002380Y007297D01*
X002398Y007265D01*
X002408Y007229D01*
X002408Y007021D01*
X002078Y007021D01*
X002078Y006901D01*
X002408Y006901D01*
X002408Y006692D01*
X002398Y006657D01*
X002380Y006625D01*
X002354Y006599D01*
X002322Y006580D01*
X002286Y006571D01*
X002078Y006571D01*
X002078Y006901D01*
X001958Y006901D01*
X001780Y006901D01*
X001780Y007021D01*
X001958Y007021D01*
X001958Y006901D01*
X001958Y006571D01*
X001780Y006571D01*
X001780Y006351D01*
X001958Y006351D01*
X001958Y006021D01*
X002078Y006021D01*
X002078Y006351D01*
X002286Y006351D01*
X002322Y006341D01*
X002354Y006323D01*
X002380Y006297D01*
X002398Y006265D01*
X002408Y006229D01*
X002408Y006021D01*
X002078Y006021D01*
X002078Y005901D01*
X002408Y005901D01*
X002408Y005692D01*
X002398Y005657D01*
X002380Y005625D01*
X002354Y005599D01*
X002322Y005580D01*
X002286Y005571D01*
X002078Y005571D01*
X002078Y005901D01*
X001958Y005901D01*
X001780Y005901D01*
X001780Y006021D01*
X001958Y006021D01*
X001958Y005901D01*
X001958Y005571D01*
X001780Y005571D01*
X001780Y005351D01*
X001958Y005351D01*
X001958Y005021D01*
X002078Y005021D01*
X002078Y005351D01*
X002286Y005351D01*
X002322Y005341D01*
X002354Y005323D01*
X002380Y005297D01*
X002398Y005265D01*
X002408Y005229D01*
X002408Y005021D01*
X002078Y005021D01*
X002078Y004901D01*
X002408Y004901D01*
X002408Y004780D01*
X005056Y004780D01*
X005159Y004737D01*
X005237Y004659D01*
X005862Y004034D01*
X005905Y003931D01*
X005905Y003572D01*
X005999Y003667D01*
X007036Y003667D01*
X007116Y003587D01*
X007239Y003587D01*
X007239Y003239D01*
X007296Y003239D01*
X007296Y003587D01*
X007463Y003587D01*
X007499Y003577D01*
X007531Y003559D01*
X007557Y003533D01*
X007575Y003501D01*
X007585Y003465D01*
X007585Y003239D01*
X007296Y003239D01*
X007296Y003182D01*
X007585Y003182D01*
X007585Y002956D01*
X007575Y002920D01*
X007557Y002888D01*
X007531Y002862D01*
X007499Y002844D01*
X007585Y002963D02*
X008044Y002963D01*
X008044Y003081D02*
X007585Y003081D01*
X007585Y003318D02*
X008044Y003318D01*
X008044Y003200D02*
X007296Y003200D01*
X007239Y003200D02*
X007165Y003200D01*
X007239Y003318D02*
X007296Y003318D01*
X007296Y003437D02*
X007239Y003437D01*
X007239Y003555D02*
X007296Y003555D01*
X007535Y003555D02*
X008220Y003555D01*
X008181Y003674D02*
X005905Y003674D01*
X005905Y003792D02*
X008062Y003792D01*
X007944Y003911D02*
X005905Y003911D01*
X005864Y004029D02*
X007825Y004029D01*
X007739Y004148D02*
X005748Y004148D01*
X005630Y004266D02*
X007720Y004266D01*
X007720Y004385D02*
X005511Y004385D01*
X005393Y004503D02*
X007720Y004503D01*
X007720Y004622D02*
X006877Y004622D01*
X006880Y004625D02*
X006898Y004657D01*
X006908Y004692D01*
X006908Y004901D01*
X006578Y004901D01*
X006578Y005021D01*
X006458Y005021D01*
X006458Y005351D01*
X006249Y005351D01*
X006214Y005341D01*
X006182Y005323D01*
X006156Y005297D01*
X006137Y005265D01*
X006128Y005229D01*
X006128Y005021D01*
X006458Y005021D01*
X006458Y004901D01*
X006128Y004901D01*
X006128Y004692D01*
X006137Y004657D01*
X006156Y004625D01*
X006182Y004599D01*
X006214Y004580D01*
X006249Y004571D01*
X006458Y004571D01*
X006458Y004901D01*
X006578Y004901D01*
X006578Y004571D01*
X006786Y004571D01*
X006822Y004580D01*
X006854Y004599D01*
X006880Y004625D01*
X006908Y004740D02*
X007720Y004740D01*
X007720Y004859D02*
X006908Y004859D01*
X006908Y005021D02*
X006908Y005229D01*
X006898Y005265D01*
X006880Y005297D01*
X006854Y005323D01*
X006822Y005341D01*
X006786Y005351D01*
X006578Y005351D01*
X006578Y005021D01*
X006908Y005021D01*
X006908Y005096D02*
X007720Y005096D01*
X007720Y005214D02*
X006908Y005214D01*
X006837Y005333D02*
X007720Y005333D01*
X007720Y005451D02*
X001780Y005451D01*
X001780Y005570D02*
X003820Y005570D01*
X003809Y005573D02*
X003836Y005563D01*
X003860Y005549D01*
X003881Y005546D01*
X003947Y005521D01*
X003964Y005509D01*
X003992Y005504D01*
X004018Y005494D01*
X004039Y005494D01*
X004109Y005480D01*
X004128Y005472D01*
X004156Y005471D01*
X004184Y005466D01*
X004204Y005470D01*
X004275Y005468D01*
X004296Y005462D01*
X004324Y005466D01*
X004352Y005466D01*
X004371Y005473D01*
X004442Y005483D01*
X004463Y005481D01*
X004489Y005490D01*
X004517Y005494D01*
X004535Y005504D01*
X004603Y005526D01*
X004624Y005528D01*
X004649Y005541D01*
X004676Y005549D01*
X004692Y005563D01*
X004755Y005595D01*
X004775Y005601D01*
X004798Y005617D01*
X004822Y005630D01*
X004836Y005646D01*
X004893Y005689D01*
X004912Y005698D01*
X004931Y005718D01*
X004954Y005735D01*
X004964Y005753D01*
X005013Y005805D01*
X005031Y005816D01*
X005046Y005840D01*
X005066Y005860D01*
X005073Y005880D01*
X005113Y005939D01*
X005128Y005953D01*
X005139Y005979D01*
X005155Y006002D01*
X005159Y006023D01*
X005188Y006088D01*
X005201Y006105D01*
X005208Y006132D01*
X005219Y006157D01*
X005220Y006178D01*
X005237Y006247D01*
X005247Y006266D01*
X005250Y006294D01*
X005257Y006321D01*
X005254Y006342D01*
X005259Y006412D01*
X005266Y006431D01*
X005264Y006460D01*
X005266Y006489D01*
X005260Y006508D01*
X005255Y006568D01*
X005258Y006588D01*
X005251Y006616D01*
X005249Y006646D01*
X005240Y006663D01*
X005226Y006721D01*
X005226Y006741D01*
X005215Y006768D01*
X005208Y006797D01*
X005196Y006813D01*
X005173Y006868D01*
X005170Y006888D01*
X005155Y006913D01*
X005144Y006940D01*
X005130Y006954D01*
X005099Y007005D01*
X005092Y007024D01*
X005073Y007046D01*
X005058Y007071D01*
X005042Y007083D01*
X005003Y007128D01*
X004994Y007146D01*
X004972Y007165D01*
X004953Y007187D01*
X004935Y007196D01*
X004890Y007235D01*
X004878Y007251D01*
X004853Y007266D01*
X004831Y007285D01*
X004812Y007291D01*
X004761Y007323D01*
X004747Y007337D01*
X004720Y007348D01*
X004695Y007363D01*
X004675Y007366D01*
X004620Y007389D01*
X004604Y007401D01*
X004575Y007408D01*
X004548Y007419D01*
X004528Y007419D01*
X004470Y007433D01*
X004453Y007442D01*
X004423Y007444D01*
X004395Y007451D01*
X004375Y007448D01*
X004315Y007453D01*
X004296Y007459D01*
X004267Y007456D01*
X004238Y007459D01*
X004219Y007452D01*
X004149Y007446D01*
X004128Y007449D01*
X004101Y007442D01*
X004073Y007440D01*
X004054Y007430D01*
X003986Y007413D01*
X003964Y007412D01*
X003939Y007401D01*
X003912Y007394D01*
X003895Y007381D01*
X003830Y007352D01*
X003809Y007348D01*
X003786Y007332D01*
X003760Y007321D01*
X003746Y007305D01*
X003687Y007266D01*
X003667Y007259D01*
X003647Y007239D01*
X003623Y007224D01*
X003612Y007206D01*
X003560Y007157D01*
X003542Y007147D01*
X003525Y007124D01*
X003505Y007105D01*
X003496Y007086D01*
X003454Y007029D01*
X003437Y007015D01*
X003424Y006990D01*
X003408Y006968D01*
X003402Y006948D01*
X003370Y006885D01*
X003356Y006868D01*
X003348Y006842D01*
X003335Y006817D01*
X003333Y006796D01*
X003311Y006728D01*
X003301Y006710D01*
X003297Y006682D01*
X003288Y006655D01*
X003290Y006634D01*
X003280Y006564D01*
X003273Y006545D01*
X003273Y006516D01*
X003269Y006489D01*
X003275Y006468D01*
X003277Y006397D01*
X003273Y006377D01*
X003278Y006349D01*
X003279Y006321D01*
X003288Y006302D01*
X003301Y006232D01*
X003301Y006211D01*
X003311Y006185D01*
X003316Y006157D01*
X003328Y006140D01*
X003353Y006074D01*
X003356Y006053D01*
X003370Y006029D01*
X003380Y006002D01*
X003395Y005987D01*
X003431Y005926D01*
X003437Y005906D01*
X003456Y005884D01*
X003470Y005860D01*
X003487Y005847D01*
X003532Y005793D01*
X003542Y005775D01*
X003564Y005756D01*
X003582Y005735D01*
X003600Y005725D01*
X003655Y005680D01*
X003667Y005663D01*
X003691Y005648D01*
X003713Y005630D01*
X003733Y005624D01*
X003794Y005588D01*
X003809Y005573D01*
X003645Y005688D02*
X002407Y005688D01*
X002408Y005807D02*
X003521Y005807D01*
X003431Y005925D02*
X002078Y005925D01*
X002018Y005961D02*
X002018Y004961D01*
X006307Y004961D01*
X006518Y004750D01*
X006458Y004740D02*
X006578Y004740D01*
X006578Y004622D02*
X006458Y004622D01*
X006458Y004859D02*
X006578Y004859D01*
X006578Y004977D02*
X007720Y004977D01*
X007720Y005570D02*
X004705Y005570D01*
X004891Y005688D02*
X006129Y005688D01*
X006128Y005692D02*
X006137Y005657D01*
X006156Y005625D01*
X006182Y005599D01*
X006214Y005580D01*
X006249Y005571D01*
X006458Y005571D01*
X006458Y005901D01*
X006128Y005901D01*
X006128Y005692D01*
X006128Y005807D02*
X005016Y005807D01*
X005103Y005925D02*
X006458Y005925D01*
X006458Y005901D02*
X006458Y006021D01*
X006458Y006351D01*
X006249Y006351D01*
X006214Y006341D01*
X006182Y006323D01*
X006156Y006297D01*
X006137Y006265D01*
X006128Y006229D01*
X006128Y006021D01*
X006458Y006021D01*
X006578Y006021D01*
X006578Y006351D01*
X006786Y006351D01*
X006822Y006341D01*
X006854Y006323D01*
X006880Y006297D01*
X006898Y006265D01*
X006908Y006229D01*
X006908Y006021D01*
X006578Y006021D01*
X006578Y005901D01*
X006908Y005901D01*
X006908Y005692D01*
X006898Y005657D01*
X006880Y005625D01*
X006854Y005599D01*
X006822Y005580D01*
X006786Y005571D01*
X006578Y005571D01*
X006578Y005901D01*
X006458Y005901D01*
X006458Y005807D02*
X006578Y005807D01*
X006578Y005688D02*
X006458Y005688D01*
X006578Y005925D02*
X007720Y005925D01*
X007720Y006044D02*
X006908Y006044D01*
X006908Y006162D02*
X007720Y006162D01*
X007720Y006281D02*
X006889Y006281D01*
X006822Y006580D02*
X006854Y006599D01*
X006880Y006625D01*
X006898Y006657D01*
X006908Y006692D01*
X006908Y006901D01*
X006578Y006901D01*
X006578Y007021D01*
X006458Y007021D01*
X006458Y007351D01*
X006249Y007351D01*
X006214Y007341D01*
X006182Y007323D01*
X006156Y007297D01*
X006137Y007265D01*
X006128Y007229D01*
X006128Y007021D01*
X006458Y007021D01*
X006458Y006901D01*
X006128Y006901D01*
X006128Y006692D01*
X006137Y006657D01*
X006156Y006625D01*
X006182Y006599D01*
X006214Y006580D01*
X006249Y006571D01*
X006458Y006571D01*
X006458Y006901D01*
X006578Y006901D01*
X006578Y006571D01*
X006786Y006571D01*
X006822Y006580D01*
X006886Y006636D02*
X007720Y006636D01*
X007720Y006518D02*
X005259Y006518D01*
X005250Y006636D02*
X006149Y006636D01*
X006128Y006755D02*
X005220Y006755D01*
X005173Y006873D02*
X006128Y006873D01*
X006128Y007110D02*
X005019Y007110D01*
X005107Y006992D02*
X006458Y006992D01*
X006458Y007110D02*
X006578Y007110D01*
X006578Y007021D02*
X006578Y007351D01*
X006786Y007351D01*
X006822Y007341D01*
X006854Y007323D01*
X006880Y007297D01*
X006898Y007265D01*
X006908Y007229D01*
X006908Y007021D01*
X006578Y007021D01*
X006578Y006992D02*
X007720Y006992D01*
X007720Y007110D02*
X006908Y007110D01*
X006908Y007229D02*
X007720Y007229D01*
X007720Y007347D02*
X006800Y007347D01*
X006578Y007347D02*
X006458Y007347D01*
X006458Y007229D02*
X006578Y007229D01*
X006236Y007347D02*
X004722Y007347D01*
X004897Y007229D02*
X006128Y007229D01*
X006214Y007580D02*
X006182Y007599D01*
X006156Y007625D01*
X006137Y007657D01*
X006128Y007692D01*
X006128Y007901D01*
X006458Y007901D01*
X006458Y008021D01*
X006458Y008351D01*
X006249Y008351D01*
X006214Y008341D01*
X006182Y008323D01*
X006156Y008297D01*
X006137Y008265D01*
X006128Y008229D01*
X006128Y008021D01*
X006458Y008021D01*
X006578Y008021D01*
X006578Y008351D01*
X006786Y008351D01*
X006822Y008341D01*
X006854Y008323D01*
X006880Y008297D01*
X006898Y008265D01*
X006908Y008229D01*
X006908Y008021D01*
X006578Y008021D01*
X006578Y007901D01*
X006908Y007901D01*
X006908Y007692D01*
X006898Y007657D01*
X006880Y007625D01*
X006854Y007599D01*
X006822Y007580D01*
X006786Y007571D01*
X006578Y007571D01*
X006578Y007901D01*
X006458Y007901D01*
X006458Y007571D01*
X006249Y007571D01*
X006214Y007580D01*
X006207Y007584D02*
X002328Y007584D01*
X002408Y007703D02*
X006128Y007703D01*
X006128Y007821D02*
X002408Y007821D01*
X002408Y008058D02*
X006128Y008058D01*
X006128Y008177D02*
X002408Y008177D01*
X002381Y008295D02*
X006155Y008295D01*
X006458Y008295D02*
X006578Y008295D01*
X006578Y008177D02*
X006458Y008177D01*
X006458Y008058D02*
X006578Y008058D01*
X006578Y007940D02*
X007720Y007940D01*
X007720Y008058D02*
X006908Y008058D01*
X006908Y008177D02*
X007720Y008177D01*
X007720Y008295D02*
X006881Y008295D01*
X006908Y007821D02*
X007720Y007821D01*
X007720Y007703D02*
X006908Y007703D01*
X006828Y007584D02*
X007720Y007584D01*
X007720Y007466D02*
X001780Y007466D01*
X001958Y007584D02*
X002078Y007584D01*
X002078Y007703D02*
X001958Y007703D01*
X001958Y007821D02*
X002078Y007821D01*
X002078Y007940D02*
X006458Y007940D01*
X006458Y007821D02*
X006578Y007821D01*
X006578Y007703D02*
X006458Y007703D01*
X006458Y007584D02*
X006578Y007584D01*
X006578Y006873D02*
X006458Y006873D01*
X006458Y006755D02*
X006578Y006755D01*
X006578Y006636D02*
X006458Y006636D01*
X006458Y006281D02*
X006578Y006281D01*
X006578Y006162D02*
X006458Y006162D01*
X006458Y006044D02*
X006578Y006044D01*
X006908Y005807D02*
X007720Y005807D01*
X007720Y005688D02*
X006907Y005688D01*
X006578Y005333D02*
X006458Y005333D01*
X006458Y005214D02*
X006578Y005214D01*
X006578Y005096D02*
X006458Y005096D01*
X006458Y004977D02*
X002078Y004977D01*
X002078Y004901D02*
X002078Y004780D01*
X001958Y004780D01*
X001958Y004901D01*
X001780Y004901D01*
X001780Y005021D01*
X001958Y005021D01*
X001958Y004901D01*
X002078Y004901D01*
X002078Y004859D02*
X001958Y004859D01*
X001958Y004977D02*
X001780Y004977D01*
X001958Y005096D02*
X002078Y005096D01*
X002078Y005214D02*
X001958Y005214D01*
X001958Y005333D02*
X002078Y005333D01*
X002337Y005333D02*
X006199Y005333D01*
X006128Y005214D02*
X002408Y005214D01*
X002408Y005096D02*
X006128Y005096D01*
X006128Y004859D02*
X002408Y004859D01*
X001750Y004500D02*
X005000Y004500D01*
X005625Y003875D01*
X005625Y002051D01*
X005116Y001541D02*
X004884Y001541D01*
X004860Y001516D02*
X004989Y001645D01*
X004989Y002457D01*
X004860Y002586D01*
X004655Y002586D01*
X004655Y003806D01*
X004612Y003909D01*
X004301Y004220D01*
X004884Y004220D01*
X005345Y003759D01*
X005345Y002586D01*
X005140Y002586D01*
X005011Y002457D01*
X005011Y001645D01*
X005140Y001516D01*
X006110Y001516D01*
X006239Y001645D01*
X006239Y002457D01*
X006110Y002586D01*
X005905Y002586D01*
X005905Y002849D01*
X005976Y002778D01*
X006013Y002687D01*
X006261Y002439D01*
X006261Y001645D01*
X006390Y001516D01*
X007360Y001516D01*
X007489Y001645D01*
X007489Y002457D01*
X007457Y002489D02*
X011157Y002489D01*
X011157Y002607D02*
X009890Y002607D01*
X009827Y002544D02*
X009956Y002673D01*
X009956Y003327D01*
X009827Y003456D01*
X009780Y003456D01*
X009780Y003556D01*
X009737Y003659D01*
X009659Y003737D01*
X009281Y004115D01*
X009281Y004237D01*
X009375Y004237D01*
X009470Y004237D01*
X009550Y004157D01*
X009948Y004157D01*
X010077Y004286D01*
X010077Y004941D01*
X010029Y004989D01*
X010029Y005057D01*
X009986Y005160D01*
X009957Y005189D01*
X010077Y005309D01*
X010077Y005964D01*
X010029Y006012D01*
X010029Y006235D01*
X010098Y006235D01*
X010188Y006325D01*
X010189Y006324D01*
X010225Y006315D01*
X010439Y006315D01*
X010439Y006690D01*
X010559Y006690D01*
X010559Y006315D01*
X010773Y006315D01*
X010809Y006324D01*
X010841Y006343D01*
X010867Y006369D01*
X010885Y006401D01*
X010895Y006436D01*
X010895Y006690D01*
X010559Y006690D01*
X010559Y006810D01*
X010439Y006810D01*
X010439Y007185D01*
X010225Y007185D01*
X010189Y007176D01*
X010188Y007175D01*
X010176Y007188D01*
X010188Y007200D01*
X010189Y007199D01*
X010225Y007190D01*
X010439Y007190D01*
X010439Y007565D01*
X010559Y007565D01*
X010559Y007190D01*
X010773Y007190D01*
X010809Y007199D01*
X010841Y007218D01*
X010867Y007244D01*
X010885Y007276D01*
X010895Y007311D01*
X010895Y007565D01*
X010559Y007565D01*
X010559Y007685D01*
X010439Y007685D01*
X010439Y008060D01*
X010225Y008060D01*
X010189Y008051D01*
X010188Y008050D01*
X010176Y008062D01*
X010188Y008075D01*
X010189Y008074D01*
X010225Y008065D01*
X010439Y008065D01*
X010439Y008440D01*
X010559Y008440D01*
X010559Y008065D01*
X010773Y008065D01*
X010809Y008074D01*
X010841Y008093D01*
X010867Y008119D01*
X010885Y008151D01*
X010895Y008186D01*
X010895Y008440D01*
X010559Y008440D01*
X010559Y008560D01*
X010895Y008560D01*
X010895Y008814D01*
X010885Y008849D01*
X010867Y008881D01*
X010855Y008894D01*
X011157Y008894D01*
X011157Y000457D01*
X007403Y000457D01*
X007489Y000543D01*
X007489Y001355D01*
X007360Y001484D01*
X006390Y001484D01*
X006261Y001355D01*
X006261Y001249D01*
X006239Y001249D01*
X006239Y001355D01*
X006110Y001484D01*
X005140Y001484D01*
X005011Y001355D01*
X005011Y001249D01*
X004989Y001249D01*
X004989Y001355D01*
X004860Y001484D01*
X003890Y001484D01*
X003761Y001355D01*
X003761Y001288D01*
X003568Y001482D01*
X003568Y002786D01*
X003616Y002834D01*
X003739Y002834D01*
X003739Y003182D01*
X003665Y003182D01*
X003665Y003239D01*
X003739Y003239D01*
X003739Y003182D01*
X003796Y003182D01*
X003796Y002834D01*
X003963Y002834D01*
X003999Y002844D01*
X004095Y002844D01*
X004057Y002888D02*
X004075Y002920D01*
X004085Y002956D01*
X004085Y003182D01*
X003796Y003182D01*
X003796Y003239D01*
X003739Y003239D01*
X003739Y003587D01*
X003616Y003587D01*
X003536Y003667D01*
X003048Y003667D01*
X003048Y003788D01*
X003005Y003891D01*
X002926Y003970D01*
X003759Y003970D01*
X004095Y003634D01*
X004095Y002586D01*
X003890Y002586D01*
X003761Y002457D01*
X003761Y001645D01*
X003890Y001516D01*
X004860Y001516D01*
X004922Y001422D02*
X005078Y001422D01*
X005011Y001304D02*
X004989Y001304D01*
X004989Y001659D02*
X005011Y001659D01*
X005011Y001778D02*
X004989Y001778D01*
X004989Y001896D02*
X005011Y001896D01*
X005011Y002015D02*
X004989Y002015D01*
X004989Y002133D02*
X005011Y002133D01*
X005011Y002252D02*
X004989Y002252D01*
X004989Y002370D02*
X005011Y002370D01*
X005043Y002489D02*
X004957Y002489D01*
X004655Y002607D02*
X005345Y002607D01*
X005345Y002726D02*
X004655Y002726D01*
X004655Y002844D02*
X005345Y002844D01*
X005345Y002963D02*
X004655Y002963D01*
X004655Y003081D02*
X005345Y003081D01*
X005345Y003200D02*
X004655Y003200D01*
X004655Y003318D02*
X005345Y003318D01*
X005345Y003437D02*
X004655Y003437D01*
X004655Y003555D02*
X005345Y003555D01*
X005345Y003674D02*
X004655Y003674D01*
X004655Y003792D02*
X005312Y003792D01*
X005194Y003911D02*
X004610Y003911D01*
X004492Y004029D02*
X005075Y004029D01*
X004957Y004148D02*
X004373Y004148D01*
X004375Y003750D02*
X003875Y004250D01*
X001625Y004250D01*
X001250Y004625D01*
X001250Y008500D01*
X001625Y008875D01*
X002750Y008875D01*
X003268Y009393D01*
X003268Y009711D01*
X003768Y009711D02*
X003768Y009393D01*
X003000Y008625D01*
X001750Y008625D01*
X001500Y008375D01*
X001500Y004750D01*
X001750Y004500D01*
X001500Y004000D02*
X002500Y004000D01*
X002768Y003732D01*
X002768Y003211D01*
X002268Y003211D02*
X002268Y003607D01*
X002125Y003750D01*
X001375Y003750D01*
X000750Y004375D01*
X000750Y010500D01*
X001131Y010881D01*
X002665Y010881D01*
X002756Y010881D01*
X003000Y011125D01*
X008125Y011125D01*
X008750Y010500D01*
X008750Y008500D01*
X009751Y008500D01*
X009250Y008500D02*
X008750Y008000D01*
X008750Y009000D01*
X009250Y008500D01*
X009218Y008532D02*
X008750Y008532D01*
X008750Y008500D02*
X008750Y006250D01*
X009001Y005999D01*
X009001Y005637D01*
X009375Y006000D02*
X009000Y006375D01*
X009000Y007375D01*
X009250Y007625D01*
X009751Y007625D01*
X010180Y008058D02*
X010216Y008058D01*
X010439Y008058D02*
X010559Y008058D01*
X010559Y008060D02*
X010559Y007685D01*
X010895Y007685D01*
X010895Y007939D01*
X010885Y007974D01*
X010867Y008006D01*
X010841Y008032D01*
X010809Y008051D01*
X010773Y008060D01*
X010559Y008060D01*
X010559Y008177D02*
X010439Y008177D01*
X010439Y008295D02*
X010559Y008295D01*
X010559Y008414D02*
X010439Y008414D01*
X010499Y008500D02*
X010499Y007625D01*
X010499Y006750D01*
X010500Y006374D01*
X010500Y003500D01*
X010500Y003000D01*
X010500Y002375D01*
X009000Y002375D01*
X009000Y003625D01*
X008250Y004375D01*
X008250Y010250D01*
X007875Y010625D01*
X002665Y010625D01*
X002665Y010369D02*
X001994Y010369D01*
X001768Y010143D01*
X001768Y009711D01*
X001500Y009125D02*
X001000Y008625D01*
X001000Y004500D01*
X001500Y004000D01*
X002985Y003911D02*
X003819Y003911D01*
X003937Y003792D02*
X003046Y003792D01*
X003048Y003674D02*
X004056Y003674D01*
X003999Y003577D02*
X003963Y003587D01*
X003796Y003587D01*
X003796Y003239D01*
X004085Y003239D01*
X004085Y003465D01*
X004075Y003501D01*
X004057Y003533D01*
X004031Y003559D01*
X003999Y003577D01*
X004035Y003555D02*
X004095Y003555D01*
X004085Y003437D02*
X004095Y003437D01*
X004085Y003318D02*
X004095Y003318D01*
X004095Y003200D02*
X003796Y003200D01*
X003739Y003200D02*
X003665Y003200D01*
X003739Y003318D02*
X003796Y003318D01*
X003796Y003437D02*
X003739Y003437D01*
X003739Y003555D02*
X003796Y003555D01*
X003796Y003081D02*
X003739Y003081D01*
X003739Y002963D02*
X003796Y002963D01*
X003796Y002844D02*
X003739Y002844D01*
X003568Y002726D02*
X004095Y002726D01*
X004095Y002607D02*
X003568Y002607D01*
X003568Y002489D02*
X003793Y002489D01*
X003761Y002370D02*
X003568Y002370D01*
X003568Y002252D02*
X003761Y002252D01*
X003761Y002133D02*
X003568Y002133D01*
X003568Y002015D02*
X003761Y002015D01*
X003761Y001896D02*
X003568Y001896D01*
X003568Y001778D02*
X003761Y001778D01*
X003761Y001659D02*
X003568Y001659D01*
X003568Y001541D02*
X003866Y001541D01*
X003828Y001422D02*
X003627Y001422D01*
X003746Y001304D02*
X003761Y001304D01*
X004375Y002051D02*
X004375Y003750D01*
X004095Y003081D02*
X004085Y003081D01*
X004085Y002963D02*
X004095Y002963D01*
X004057Y002888D02*
X004031Y002862D01*
X003999Y002844D01*
X005905Y002844D02*
X005910Y002844D01*
X005905Y002726D02*
X005998Y002726D01*
X005905Y002607D02*
X006094Y002607D01*
X006207Y002489D02*
X006212Y002489D01*
X006239Y002370D02*
X006261Y002370D01*
X006261Y002252D02*
X006239Y002252D01*
X006239Y002133D02*
X006261Y002133D01*
X006261Y002015D02*
X006239Y002015D01*
X006239Y001896D02*
X006261Y001896D01*
X006261Y001778D02*
X006239Y001778D01*
X006239Y001659D02*
X006261Y001659D01*
X006366Y001541D02*
X006134Y001541D01*
X006172Y001422D02*
X006328Y001422D01*
X006261Y001304D02*
X006239Y001304D01*
X007384Y001541D02*
X009346Y001541D01*
X009365Y001559D02*
X009293Y001487D01*
X009254Y001394D01*
X009254Y001292D01*
X009293Y001198D01*
X009359Y001133D01*
X009293Y001067D01*
X009254Y000973D01*
X009254Y000872D01*
X009293Y000778D01*
X009365Y000706D01*
X009459Y000668D01*
X009560Y000668D01*
X010191Y000668D01*
X010284Y000706D01*
X010356Y000778D01*
X010395Y000872D01*
X010395Y000968D01*
X010728Y000968D01*
X010822Y001006D01*
X010894Y001078D01*
X010932Y001172D01*
X010932Y001273D01*
X010894Y001367D01*
X010828Y001433D01*
X010894Y001498D01*
X010932Y001592D01*
X010932Y001694D01*
X010894Y001787D01*
X010822Y001859D01*
X010728Y001898D01*
X009996Y001898D01*
X009903Y001859D01*
X009831Y001787D01*
X009792Y001694D01*
X009792Y001598D01*
X009459Y001598D01*
X009365Y001559D01*
X009266Y001422D02*
X007422Y001422D01*
X007489Y001304D02*
X009254Y001304D01*
X009307Y001185D02*
X007489Y001185D01*
X007489Y001067D02*
X009293Y001067D01*
X009254Y000948D02*
X007489Y000948D01*
X007489Y000830D02*
X009272Y000830D01*
X009360Y000711D02*
X007489Y000711D01*
X007489Y000593D02*
X011157Y000593D01*
X011157Y000711D02*
X010289Y000711D01*
X010377Y000830D02*
X011157Y000830D01*
X011157Y000948D02*
X010395Y000948D01*
X010882Y001067D02*
X011157Y001067D01*
X011157Y001185D02*
X010932Y001185D01*
X010920Y001304D02*
X011157Y001304D01*
X011157Y001422D02*
X010839Y001422D01*
X010911Y001541D02*
X011157Y001541D01*
X011157Y001659D02*
X010932Y001659D01*
X010898Y001778D02*
X011157Y001778D01*
X011157Y001896D02*
X010733Y001896D01*
X009992Y001896D02*
X007489Y001896D01*
X007489Y001778D02*
X009827Y001778D01*
X009792Y001659D02*
X007489Y001659D01*
X007750Y002375D02*
X009000Y002375D01*
X009173Y002544D02*
X009827Y002544D01*
X009956Y002726D02*
X010129Y002726D01*
X010133Y002710D02*
X010152Y002678D01*
X010178Y002652D01*
X010210Y002633D01*
X010245Y002624D01*
X010442Y002624D01*
X010442Y002942D01*
X010558Y002942D01*
X010558Y002624D01*
X010755Y002624D01*
X010790Y002633D01*
X010822Y002652D01*
X010848Y002678D01*
X010867Y002710D01*
X010876Y002745D01*
X010876Y002942D01*
X010558Y002942D01*
X010558Y003058D01*
X010876Y003058D01*
X010876Y003255D01*
X010867Y003290D01*
X010848Y003322D01*
X010822Y003348D01*
X010790Y003367D01*
X010755Y003376D01*
X010558Y003376D01*
X010558Y003058D01*
X010442Y003058D01*
X010442Y002942D01*
X010124Y002942D01*
X010124Y002745D01*
X010133Y002710D01*
X010124Y002844D02*
X009956Y002844D01*
X009956Y002963D02*
X010442Y002963D01*
X010442Y003058D02*
X010124Y003058D01*
X010124Y003255D01*
X010133Y003290D01*
X010152Y003322D01*
X010178Y003348D01*
X010210Y003367D01*
X010245Y003376D01*
X010442Y003376D01*
X010442Y003058D01*
X010442Y003081D02*
X010558Y003081D01*
X010558Y002963D02*
X011157Y002963D01*
X011157Y003081D02*
X010876Y003081D01*
X010876Y003200D02*
X011157Y003200D01*
X011157Y003318D02*
X010851Y003318D01*
X010558Y003318D02*
X010442Y003318D01*
X010442Y003200D02*
X010558Y003200D01*
X010558Y002844D02*
X010442Y002844D01*
X010442Y002726D02*
X010558Y002726D01*
X010871Y002726D02*
X011157Y002726D01*
X011157Y002844D02*
X010876Y002844D01*
X011157Y003437D02*
X009847Y003437D01*
X009780Y003555D02*
X011157Y003555D01*
X011157Y003674D02*
X009722Y003674D01*
X009604Y003792D02*
X011157Y003792D01*
X011157Y003911D02*
X009485Y003911D01*
X009367Y004029D02*
X011157Y004029D01*
X011157Y004148D02*
X009281Y004148D01*
X009375Y004237D02*
X009375Y004613D01*
X009375Y004237D01*
X009375Y004266D02*
X009375Y004266D01*
X009375Y004385D02*
X009375Y004385D01*
X009375Y004503D02*
X009375Y004503D01*
X009375Y004613D02*
X009375Y004613D01*
X009001Y004613D02*
X009001Y003999D01*
X008500Y004500D01*
X008500Y010375D01*
X008000Y010875D01*
X003341Y010875D01*
X003335Y010881D01*
X003335Y010369D02*
X007756Y010369D01*
X008000Y010125D01*
X008000Y004250D01*
X008500Y003750D01*
X008500Y003000D01*
X008890Y002607D02*
X009110Y002607D01*
X009173Y002544D02*
X009044Y002673D01*
X009044Y003327D01*
X009160Y003444D01*
X008767Y003837D01*
X008780Y003806D01*
X008780Y003456D01*
X008827Y003456D01*
X008956Y003327D01*
X008956Y002673D01*
X008827Y002544D01*
X008173Y002544D01*
X008956Y002726D02*
X009044Y002726D01*
X009044Y002844D02*
X008956Y002844D01*
X008956Y002963D02*
X009044Y002963D01*
X009044Y003081D02*
X008956Y003081D01*
X008956Y003200D02*
X009044Y003200D01*
X009044Y003318D02*
X008956Y003318D01*
X008847Y003437D02*
X009153Y003437D01*
X009049Y003555D02*
X008780Y003555D01*
X008780Y003674D02*
X008931Y003674D01*
X008812Y003792D02*
X008780Y003792D01*
X009001Y003999D02*
X009500Y003500D01*
X009500Y003000D01*
X009956Y003081D02*
X010124Y003081D01*
X010124Y003200D02*
X009956Y003200D01*
X009956Y003318D02*
X010149Y003318D01*
X010057Y004266D02*
X011157Y004266D01*
X011157Y004385D02*
X010077Y004385D01*
X010077Y004503D02*
X011157Y004503D01*
X011157Y004622D02*
X010077Y004622D01*
X010077Y004740D02*
X011157Y004740D01*
X011157Y004859D02*
X010077Y004859D01*
X010041Y004977D02*
X011157Y004977D01*
X011157Y005096D02*
X010013Y005096D01*
X009982Y005214D02*
X011157Y005214D01*
X011157Y005333D02*
X010077Y005333D01*
X010077Y005451D02*
X011157Y005451D01*
X011157Y005570D02*
X010077Y005570D01*
X010077Y005688D02*
X011157Y005688D01*
X011157Y005807D02*
X010077Y005807D01*
X010077Y005925D02*
X011157Y005925D01*
X011157Y006044D02*
X010029Y006044D01*
X010029Y006162D02*
X011157Y006162D01*
X011157Y006281D02*
X010144Y006281D01*
X010439Y006399D02*
X010559Y006399D01*
X010559Y006518D02*
X010439Y006518D01*
X010439Y006636D02*
X010559Y006636D01*
X010559Y006755D02*
X011157Y006755D01*
X011157Y006873D02*
X010895Y006873D01*
X010895Y006810D02*
X010895Y007064D01*
X010885Y007099D01*
X010867Y007131D01*
X010841Y007157D01*
X010809Y007176D01*
X010773Y007185D01*
X010559Y007185D01*
X010559Y006810D01*
X010895Y006810D01*
X010895Y006636D02*
X011157Y006636D01*
X011157Y006518D02*
X010895Y006518D01*
X010884Y006399D02*
X011157Y006399D01*
X011157Y006992D02*
X010895Y006992D01*
X010879Y007110D02*
X011157Y007110D01*
X011157Y007229D02*
X010852Y007229D01*
X010895Y007347D02*
X011157Y007347D01*
X011157Y007466D02*
X010895Y007466D01*
X010895Y007703D02*
X011157Y007703D01*
X011157Y007821D02*
X010895Y007821D01*
X010895Y007940D02*
X011157Y007940D01*
X011157Y008058D02*
X010782Y008058D01*
X010892Y008177D02*
X011157Y008177D01*
X011157Y008295D02*
X010895Y008295D01*
X010895Y008414D02*
X011157Y008414D01*
X011157Y008532D02*
X010559Y008532D01*
X010895Y008651D02*
X011157Y008651D01*
X011157Y008769D02*
X010895Y008769D01*
X010861Y008888D02*
X011157Y008888D01*
X010559Y007940D02*
X010439Y007940D01*
X010439Y007821D02*
X010559Y007821D01*
X010559Y007703D02*
X010439Y007703D01*
X010559Y007584D02*
X011157Y007584D01*
X010559Y007466D02*
X010439Y007466D01*
X010439Y007347D02*
X010559Y007347D01*
X010559Y007229D02*
X010439Y007229D01*
X010439Y007110D02*
X010559Y007110D01*
X010559Y006992D02*
X010439Y006992D01*
X010439Y006873D02*
X010559Y006873D01*
X009751Y006750D02*
X009749Y006748D01*
X009749Y005637D01*
X009375Y006000D02*
X009375Y005125D01*
X009125Y005125D01*
X009001Y005001D01*
X009001Y004613D01*
X008989Y004625D01*
X009375Y005125D02*
X009625Y005125D01*
X009749Y005001D01*
X009749Y004613D01*
X008153Y003437D02*
X007585Y003437D01*
X007296Y003081D02*
X007239Y003081D01*
X007239Y002963D02*
X007296Y002963D01*
X007296Y002844D02*
X007239Y002844D01*
X006159Y004622D02*
X005274Y004622D01*
X005152Y004740D02*
X006128Y004740D01*
X006128Y006044D02*
X005168Y006044D01*
X005219Y006162D02*
X006128Y006162D01*
X006146Y006281D02*
X005248Y006281D01*
X005258Y006399D02*
X007720Y006399D01*
X007720Y006755D02*
X006908Y006755D01*
X006908Y006873D02*
X007720Y006873D01*
X008750Y008058D02*
X008808Y008058D01*
X008750Y008177D02*
X008927Y008177D01*
X009045Y008295D02*
X008750Y008295D01*
X008750Y008414D02*
X009164Y008414D01*
X009099Y008651D02*
X008750Y008651D01*
X008750Y008769D02*
X008981Y008769D01*
X008862Y008888D02*
X008750Y008888D01*
X007720Y008888D02*
X003658Y008888D01*
X003540Y008769D02*
X007720Y008769D01*
X007720Y008651D02*
X003421Y008651D01*
X003303Y008532D02*
X007720Y008532D01*
X007720Y008414D02*
X003184Y008414D01*
X003777Y009006D02*
X007720Y009006D01*
X007720Y009125D02*
X003895Y009125D01*
X004009Y009243D02*
X007720Y009243D01*
X007720Y009362D02*
X007643Y009362D01*
X007665Y009480D02*
X007720Y009480D01*
X007720Y009599D02*
X007665Y009599D01*
X007665Y009717D02*
X007720Y009717D01*
X007720Y009836D02*
X007665Y009836D01*
X007665Y009954D02*
X007720Y009954D01*
X007656Y010073D02*
X007630Y010073D01*
X003808Y007347D02*
X002300Y007347D01*
X002408Y007229D02*
X003631Y007229D01*
X003510Y007110D02*
X002408Y007110D01*
X002408Y006873D02*
X003360Y006873D01*
X003320Y006755D02*
X002408Y006755D01*
X002386Y006636D02*
X003290Y006636D01*
X003273Y006518D02*
X001780Y006518D01*
X001780Y006399D02*
X003277Y006399D01*
X003292Y006281D02*
X002389Y006281D01*
X002408Y006162D02*
X003315Y006162D01*
X003362Y006044D02*
X002408Y006044D01*
X002078Y006044D02*
X001958Y006044D01*
X002018Y005961D02*
X002018Y006961D01*
X002018Y007961D01*
X001958Y007940D02*
X001780Y007940D01*
X001958Y008058D02*
X002078Y008058D01*
X002078Y008177D02*
X001958Y008177D01*
X001958Y008295D02*
X002078Y008295D01*
X002500Y009125D02*
X001500Y009125D01*
X002500Y009125D02*
X002768Y009393D01*
X002768Y009711D01*
X002078Y007347D02*
X001958Y007347D01*
X001958Y007229D02*
X002078Y007229D01*
X002078Y007110D02*
X001958Y007110D01*
X001958Y006992D02*
X001780Y006992D01*
X001958Y006873D02*
X002078Y006873D01*
X002078Y006755D02*
X001958Y006755D01*
X001958Y006636D02*
X002078Y006636D01*
X002078Y006281D02*
X001958Y006281D01*
X001958Y006162D02*
X002078Y006162D01*
X001958Y005925D02*
X001780Y005925D01*
X001958Y005807D02*
X002078Y005807D01*
X002078Y005688D02*
X001958Y005688D01*
X002078Y006992D02*
X003425Y006992D01*
X007420Y000474D02*
X011157Y000474D01*
M02*
